<svg width="785" height="442" viewBox="0 0 785 442" fill="none" xmlns="http://www.w3.org/2000/svg">
<g clip-path="url(#clip0)">
<g clip-path="url(#clip1)">
<path d="M406.732 135.42H484.618V141.624H413.874V188.316H480.398V194.521H413.874V245.784H485.428V251.989H406.732V135.42ZM491.594 135.42H499.87L536.541 186.683L574.023 135.42L625.004 70.3042L541.247 192.071L584.407 251.989H575.807L536.541 197.459L497.113 251.989H488.675L532.16 192.071L491.597 135.42H491.594ZM587.491 141.624V135.42H676.245V141.624H635.358V251.986H628.217V141.624H587.494H587.491ZM309.297 135.42H318.222L441.281 319.97L390.426 251.989L316.76 144.236L316.435 251.989H309.297V135.42ZM675.529 243.911C674.067 243.911 672.974 242.778 672.974 241.316C672.974 239.851 674.067 238.719 675.526 238.719C677.003 238.719 678.079 239.851 678.079 241.316C678.079 242.778 677.003 243.911 675.526 243.911H675.529ZM682.542 237.08H686.364C686.417 239.155 687.93 240.547 690.15 240.547C692.633 240.547 694.039 239.051 694.039 236.244V218.472H697.929V236.261C697.929 241.316 695.012 244.227 690.184 244.227C685.654 244.227 682.545 241.403 682.545 237.08H682.542ZM703.015 236.856H706.871C707.201 239.241 709.527 240.757 712.88 240.757C716.003 240.757 718.296 239.135 718.296 236.907C718.296 234.991 716.839 233.839 713.52 233.056L710.29 232.274C705.761 231.211 703.692 229.013 703.692 225.32C703.692 220.84 707.338 217.86 712.807 217.86C717.896 217.86 721.615 220.84 721.838 225.074H718.052C717.689 222.758 715.676 221.31 712.756 221.31C709.681 221.31 707.634 222.792 707.634 225.057C707.634 226.852 708.954 227.881 712.22 228.647L714.979 229.326C720.119 230.529 722.238 232.62 722.238 236.401C722.238 241.21 718.519 244.227 712.583 244.227C707.027 244.227 703.292 241.35 703.015 236.854V236.856Z" fill="black" fill-opacity="0.1"/>
</g>
</g>
<defs>
<clipPath id="clip0">
<rect width="785" height="441.562" fill="white"/>
</clipPath>
<clipPath id="clip1">
<rect width="413.822" height="251.648" fill="white" transform="translate(308.895 69.7253)"/>
</clipPath>
</defs>
</svg>
