<svg width="65" height="66" viewBox="0 0 65 66" fill="none" xmlns="http://www.w3.org/2000/svg">
<path d="M32.5 65.9998C31.4907 65.9998 30.5487 65.7572 29.674 65.3328L20.7246 60.5427C19.3789 59.8758 20.0517 59.6332 20.4555 59.512C22.2721 58.9663 22.6086 58.845 24.4926 57.8747C24.6947 57.7534 24.9638 57.8141 25.1654 57.9353L32.029 61.6341C32.2981 61.7553 32.6346 61.7553 32.8364 61.6341L59.6845 47.6278C59.9536 47.5065 60.0882 47.264 60.0882 46.9608V19.0084C60.0882 18.7052 59.9536 18.4627 59.6845 18.3414L32.8364 4.39555C32.5673 4.27428 32.2309 4.27428 32.029 4.39555L5.18096 18.3417C4.91182 18.4629 4.77725 18.7661 4.77725 19.0086V46.9608C4.77725 47.2034 4.91182 47.5065 5.18096 47.6278L12.5155 51.4476C16.4856 53.2665 18.9749 51.1444 18.9749 49.0223V21.4336C18.9749 21.0699 19.3116 20.7061 19.7826 20.7061H23.2144C23.6181 20.7061 24.0218 21.0092 24.0218 21.4336V49.0221C24.0218 53.8122 21.1283 56.6012 16.0817 56.6012C14.5341 56.6012 13.323 56.6012 9.89143 55.0854L2.82598 51.4476C1.07656 50.5379 0 48.8402 0 47.0212V19.0693C0 17.2503 1.07656 15.5526 2.82598 14.6429L29.674 0.636629C31.3562 -0.21221 33.6438 -0.21221 35.326 0.636629L62.174 14.6429C63.9234 15.5524 65 17.2501 65 19.0693V47.0215C65 48.8404 63.9234 50.5381 62.174 51.4476L35.326 65.4543C34.4513 65.8181 33.442 66 32.5 66V65.9998ZM40.7763 46.7787C29.0009 46.7787 26.5787 41.9282 26.5787 37.805C26.5787 37.4412 26.9151 37.0775 27.3861 37.0775H30.8849C31.2886 37.0775 31.6253 37.32 31.6253 37.6838C32.1636 40.8972 33.7111 42.4739 40.8436 42.4739C46.4958 42.4739 48.9183 41.3219 48.9183 38.5935C48.9183 37.0168 48.2455 35.8648 39.4306 35.0764C32.0963 34.4094 27.5206 32.9543 27.5206 27.6794C27.5206 22.7678 32.096 19.8575 39.7671 19.8575C48.3798 19.8575 52.619 22.5252 53.1573 28.3461C53.1573 28.528 53.09 28.7099 52.9555 28.8918C52.8209 29.013 52.619 29.1343 52.4172 29.1343H48.9183C48.5817 29.1343 48.2455 28.8918 48.1779 28.5886C47.3705 25.2539 45.2847 24.1625 39.7671 24.1625C33.5768 24.1625 32.8364 26.1027 32.8364 27.5579C32.8364 29.3164 33.7111 29.8619 42.0547 30.832C50.3313 31.8021 54.2339 33.1968 54.2339 38.4113C54.1666 43.7471 49.322 46.7787 40.7763 46.7787V46.7787Z" fill="#539E43"/>
</svg>
