<svg width="42" height="94" viewBox="0 0 42 94" fill="none" xmlns="http://www.w3.org/2000/svg">
<path d="M28.7701 10.4392C24.9816 5.73687 21.6892 1.03452 21.0578 0H20.9225C20.2911 0.987494 16.9987 5.73687 13.2102 10.4392C-19.2626 53.6538 18.3517 82.8084 18.3517 82.8084L18.6674 83.0435C18.9381 87.5108 19.6597 94 19.6597 94H22.4559C22.4559 94 23.1325 87.5578 23.4031 83.0435L23.7188 82.7614C23.7188 82.7614 61.2429 53.6538 28.7701 10.4392V10.4392ZM20.9225 82.1501C20.1321 81.473 19.407 80.7171 18.7577 79.8929L20.9225 32.8694L22.9521 79.8929C22.3436 80.7089 21.6642 81.4644 20.9225 82.1501V82.1501Z" fill="#3FA037"/>
</svg>
